<svg xmlns="http://www.w3.org/2000/svg" width="1436" height="514" viewBox="0 0 1436 514" role="img">
<title>Folder map · View -&gt; owner -&gt; folder / file</title>
<desc>Follow the arrows to the source. Paper paths are relative to Paper-&lt;Slug&gt;/; repo and external paths are marked.</desc>
<defs><marker id="arrow-1864ab" markerWidth="8" markerHeight="8" refX="7" refY="4" orient="auto" markerUnits="userSpaceOnUse"><path d="M 0 0 L 8 4 L 0 8" fill="none" stroke="#1864ab" stroke-width="2"/></marker><marker id="arrow-495057" markerWidth="8" markerHeight="8" refX="7" refY="4" orient="auto" markerUnits="userSpaceOnUse"><path d="M 0 0 L 8 4 L 0 8" fill="none" stroke="#495057" stroke-width="2"/></marker></defs>
<rect width="1436" height="514" fill="#ffffff"/>

<text x="24" y="47" font-family="Comic Sans MS, Arial, sans-serif" font-size="29" fill="#1e1e1e" text-anchor="start"><tspan x="24" dy="0">Folder map · View -&gt; owner -&gt; folder / file</tspan></text>
<text x="24" y="80" font-family="Comic Sans MS, Arial, sans-serif" font-size="16" fill="#495057" text-anchor="start"><tspan x="24" dy="0">Follow the arrows to the source. Paper paths are relative to Paper-&lt;Slug&gt;/; repo and external paths are marked.</tspan></text>
<text x="24" y="125" font-family="Comic Sans MS, Arial, sans-serif" font-size="17" fill="#495057" text-anchor="start"><tspan x="24" dy="0">Space / View</tspan></text>
<text x="308" y="125" font-family="Comic Sans MS, Arial, sans-serif" font-size="17" fill="#495057" text-anchor="start"><tspan x="308" dy="0">Native owner</tspan></text>
<text x="700" y="125" font-family="Comic Sans MS, Arial, sans-serif" font-size="17" fill="#495057" text-anchor="start"><tspan x="700" dy="0">Folder / file · source convention</tspan></text>
<rect x="24" y="144" width="218" height="36" rx="10" fill="#e7f5ff" stroke="#ced4da" stroke-width="2"/>
<text x="34" y="167" font-family="Comic Sans MS, Arial, sans-serif" font-size="14" fill="#1864ab" text-anchor="start"><tspan x="34" dy="0">Guide</tspan></text>
<rect x="308" y="144" width="300" height="36" rx="10" fill="#ffffff" stroke="#ced4da" stroke-width="2"/>
<text x="318" y="167" font-family="Comic Sans MS, Arial, sans-serif" font-size="14" fill="#495057" text-anchor="start"><tspan x="318" dy="0">Family skill + UI contracts</tspan></text>
<rect x="700" y="144" width="664" height="36" rx="10" fill="#ffffff" stroke="#ced4da" stroke-width="2"/>
<text x="710" y="166" font-family="Courier New, monospace" font-size="13" fill="#495057" text-anchor="start"><tspan x="710" dy="0">repo: skills/paper/&lt;skill&gt;/ + servers/workbench-paper/</tspan></text>
<polyline points="246,168 304,168" fill="none" stroke="#495057" stroke-width="2" marker-end="url(#arrow-495057)"/>
<text x="253" y="159" font-family="Comic Sans MS, Arial, sans-serif" font-size="12" fill="#495057" text-anchor="start"><tspan x="253" dy="0">reads</tspan></text>
<polyline points="612,168 696,168" fill="none" stroke="#495057" stroke-width="2" marker-end="url(#arrow-495057)"/>
<text x="616" y="159" font-family="Comic Sans MS, Arial, sans-serif" font-size="12" fill="#495057" text-anchor="start"><tspan x="616" dy="0">defined in</tspan></text>
<rect x="24" y="186" width="218" height="36" rx="10" fill="#ebfbee" stroke="#ced4da" stroke-width="2"/>
<text x="34" y="209" font-family="Comic Sans MS, Arial, sans-serif" font-size="14" fill="#2b8a3e" text-anchor="start"><tspan x="34" dy="0">Ideation</tspan></text>
<rect x="308" y="186" width="300" height="36" rx="10" fill="#ffffff" stroke="#ced4da" stroke-width="2"/>
<text x="318" y="209" font-family="Comic Sans MS, Arial, sans-serif" font-size="14" fill="#495057" text-anchor="start"><tspan x="318" dy="0">haipipe-paper-ideation</tspan></text>
<rect x="700" y="186" width="664" height="36" rx="10" fill="#ffffff" stroke="#ced4da" stroke-width="2"/>
<text x="710" y="208" font-family="Courier New, monospace" font-size="13" fill="#495057" text-anchor="start"><tspan x="710" dy="0">A1-Story/Story00-ideation/</tspan></text>
<polyline points="246,210 304,210" fill="none" stroke="#495057" stroke-width="2" marker-end="url(#arrow-495057)"/>
<text x="253" y="201" font-family="Comic Sans MS, Arial, sans-serif" font-size="12" fill="#495057" text-anchor="start"><tspan x="253" dy="0">reads</tspan></text>
<polyline points="612,210 696,210" fill="none" stroke="#495057" stroke-width="2" marker-end="url(#arrow-495057)"/>
<text x="616" y="201" font-family="Comic Sans MS, Arial, sans-serif" font-size="12" fill="#495057" text-anchor="start"><tspan x="616" dy="0">stored at</tspan></text>
<rect x="24" y="228" width="218" height="36" rx="10" fill="#ebfbee" stroke="#ced4da" stroke-width="2"/>
<text x="34" y="251" font-family="Comic Sans MS, Arial, sans-serif" font-size="14" fill="#2b8a3e" text-anchor="start"><tspan x="34" dy="0">Story</tspan></text>
<rect x="308" y="228" width="300" height="36" rx="10" fill="#ffffff" stroke="#ced4da" stroke-width="2"/>
<text x="318" y="251" font-family="Comic Sans MS, Arial, sans-serif" font-size="14" fill="#495057" text-anchor="start"><tspan x="318" dy="0">haipipe-paper-story</tspan></text>
<rect x="700" y="228" width="664" height="36" rx="10" fill="#ffffff" stroke="#ced4da" stroke-width="2"/>
<text x="710" y="250" font-family="Courier New, monospace" font-size="13" fill="#495057" text-anchor="start"><tspan x="710" dy="0">A1-Story/Story&lt;Letter&gt;-&lt;desk&gt;-&lt;idea&gt;/</tspan></text>
<polyline points="246,252 304,252" fill="none" stroke="#495057" stroke-width="2" marker-end="url(#arrow-495057)"/>
<text x="253" y="243" font-family="Comic Sans MS, Arial, sans-serif" font-size="12" fill="#495057" text-anchor="start"><tspan x="253" dy="0">reads</tspan></text>
<polyline points="612,252 696,252" fill="none" stroke="#495057" stroke-width="2" marker-end="url(#arrow-495057)"/>
<text x="616" y="243" font-family="Comic Sans MS, Arial, sans-serif" font-size="12" fill="#495057" text-anchor="start"><tspan x="616" dy="0">stored at</tspan></text>
<rect x="24" y="270" width="218" height="36" rx="10" fill="#ebfbee" stroke="#ced4da" stroke-width="2"/>
<text x="34" y="293" font-family="Comic Sans MS, Arial, sans-serif" font-size="14" fill="#2b8a3e" text-anchor="start"><tspan x="34" dy="0">Sections</tspan></text>
<rect x="308" y="270" width="300" height="36" rx="10" fill="#ffffff" stroke="#ced4da" stroke-width="2"/>
<text x="318" y="293" font-family="Comic Sans MS, Arial, sans-serif" font-size="14" fill="#495057" text-anchor="start"><tspan x="318" dy="0">Section Page owners</tspan></text>
<rect x="700" y="270" width="664" height="36" rx="10" fill="#ffffff" stroke="#ced4da" stroke-width="2"/>
<text x="710" y="292" font-family="Courier New, monospace" font-size="13" fill="#495057" text-anchor="start"><tspan x="710" dy="0">Ba-&lt;desk&gt;-Main/ + Bb-&lt;desk&gt;-Appendix/</tspan></text>
<polyline points="246,294 304,294" fill="none" stroke="#495057" stroke-width="2" marker-end="url(#arrow-495057)"/>
<text x="253" y="285" font-family="Comic Sans MS, Arial, sans-serif" font-size="12" fill="#495057" text-anchor="start"><tspan x="253" dy="0">reads</tspan></text>
<polyline points="612,294 696,294" fill="none" stroke="#495057" stroke-width="2" marker-end="url(#arrow-495057)"/>
<text x="616" y="285" font-family="Comic Sans MS, Arial, sans-serif" font-size="12" fill="#495057" text-anchor="start"><tspan x="616" dy="0">stored at</tspan></text>
<rect x="24" y="312" width="218" height="36" rx="10" fill="#ebfbee" stroke="#ced4da" stroke-width="2"/>
<text x="34" y="335" font-family="Comic Sans MS, Arial, sans-serif" font-size="14" fill="#2b8a3e" text-anchor="start"><tspan x="34" dy="0">Delivery</tspan></text>
<rect x="308" y="312" width="300" height="36" rx="10" fill="#ffffff" stroke="#ced4da" stroke-width="2"/>
<text x="318" y="335" font-family="Comic Sans MS, Arial, sans-serif" font-size="14" fill="#495057" text-anchor="start"><tspan x="318" dy="0">Assemble + Round owners</tspan></text>
<rect x="700" y="312" width="664" height="36" rx="10" fill="#ffffff" stroke="#ced4da" stroke-width="2"/>
<text x="710" y="334" font-family="Courier New, monospace" font-size="13" fill="#495057" text-anchor="start"><tspan x="710" dy="0">delivery/ + Bc-&lt;desk&gt;-Round/</tspan></text>
<polyline points="246,336 304,336" fill="none" stroke="#495057" stroke-width="2" marker-end="url(#arrow-495057)"/>
<text x="253" y="327" font-family="Comic Sans MS, Arial, sans-serif" font-size="12" fill="#495057" text-anchor="start"><tspan x="253" dy="0">reads</tspan></text>
<polyline points="612,336 696,336" fill="none" stroke="#495057" stroke-width="2" marker-end="url(#arrow-495057)"/>
<text x="616" y="327" font-family="Comic Sans MS, Arial, sans-serif" font-size="12" fill="#495057" text-anchor="start"><tspan x="616" dy="0">stored at</tspan></text>
<rect x="24" y="354" width="218" height="36" rx="10" fill="#ebfbee" stroke="#ced4da" stroke-width="2"/>
<text x="34" y="377" font-family="Comic Sans MS, Arial, sans-serif" font-size="14" fill="#2b8a3e" text-anchor="start"><tspan x="34" dy="0">Story / RoadMap Draw</tspan></text>
<rect x="308" y="354" width="300" height="36" rx="10" fill="#ffffff" stroke="#ced4da" stroke-width="2"/>
<text x="318" y="377" font-family="Comic Sans MS, Arial, sans-serif" font-size="14" fill="#495057" text-anchor="start"><tspan x="318" dy="0">Story drawing owner</tspan></text>
<rect x="700" y="354" width="664" height="36" rx="10" fill="#ffffff" stroke="#ced4da" stroke-width="2"/>
<text x="710" y="376" font-family="Courier New, monospace" font-size="13" fill="#495057" text-anchor="start"><tspan x="710" dy="0">studio/&lt;Story stem&gt;.excalidraw</tspan></text>
<polyline points="246,378 304,378" fill="none" stroke="#495057" stroke-width="2" marker-end="url(#arrow-495057)"/>
<text x="253" y="369" font-family="Comic Sans MS, Arial, sans-serif" font-size="12" fill="#495057" text-anchor="start"><tspan x="253" dy="0">reads</tspan></text>
<polyline points="612,378 696,378" fill="none" stroke="#495057" stroke-width="2" marker-end="url(#arrow-495057)"/>
<text x="616" y="369" font-family="Comic Sans MS, Arial, sans-serif" font-size="12" fill="#495057" text-anchor="start"><tspan x="616" dy="0">stored at</tspan></text>
<rect x="24" y="396" width="218" height="36" rx="10" fill="#ebfbee" stroke="#ced4da" stroke-width="2"/>
<text x="34" y="419" font-family="Comic Sans MS, Arial, sans-serif" font-size="14" fill="#2b8a3e" text-anchor="start"><tspan x="34" dy="0">Related Work</tspan></text>
<rect x="308" y="396" width="300" height="36" rx="10" fill="#ffffff" stroke="#ced4da" stroke-width="2"/>
<text x="318" y="419" font-family="Comic Sans MS, Arial, sans-serif" font-size="14" fill="#495057" text-anchor="start"><tspan x="318" dy="0">Task / Discovery owners</tspan></text>
<rect x="700" y="396" width="664" height="36" rx="10" fill="#ffffff" stroke="#ced4da" stroke-width="2"/>
<text x="710" y="418" font-family="Courier New, monospace" font-size="13" fill="#495057" text-anchor="start"><tspan x="710" dy="0">external: task-home / discovery-home -&gt; native records</tspan></text>
<polyline points="246,420 304,420" fill="none" stroke="#495057" stroke-width="2" marker-end="url(#arrow-495057)"/>
<text x="253" y="411" font-family="Comic Sans MS, Arial, sans-serif" font-size="12" fill="#495057" text-anchor="start"><tspan x="253" dy="0">reads</tspan></text>
<polyline points="612,420 696,420" fill="none" stroke="#495057" stroke-width="2" marker-end="url(#arrow-495057)"/>
<text x="616" y="411" font-family="Comic Sans MS, Arial, sans-serif" font-size="12" fill="#495057" text-anchor="start"><tspan x="616" dy="0">stored at</tspan></text>
</svg>
